<svg xmlns="http://www.w3.org/2000/svg" width="1200" height="630" viewBox="0 0 1200 630">
  <defs>
    <linearGradient id="g" x1="0" x2="1" y1="0" y2="1">
      <stop offset="0%" stop-color="#FFF3E0"/>
      <stop offset="100%" stop-color="#F7E3C5"/>
    </linearGradient>
  </defs>
  <rect width="1200" height="630" fill="url(#g)"/>
  <g transform="translate(100,120)">
    <rect x="0" y="0" width="1000" height="390" rx="24" fill="white" stroke="#E7B045" stroke-width="4"/>
    <g transform="translate(60,60)">
      <circle cx="60" cy="60" r="58" fill="#E7B045" stroke="#6B4F3A" stroke-width="4"/>
      <path d="M34 74c8-14 24-14 32 0 8-14 24-14 32 0-4 20-20 30-32 30s-28-10-32-30Z" fill="#FFF3E0" stroke="#6B4F3A" stroke-width="3"/>
      <circle cx="52" cy="52" r="4" fill="#6B4F3A"/>
      <circle cx="92" cy="52" r="4" fill="#6B4F3A"/>
    </g>
    <g transform="translate(220,56)">
      <text x="0" y="0" font-family="'Cormorant Garamond', serif" font-size="88" font-weight="700" fill="#2B211A">The Puffery</text>
      <text x="0" y="70" font-family="Inter, system-ui, -apple-system, Segoe UI, Roboto, Helvetica, Arial, 'Apple Color Emoji', 'Segoe UI Emoji'" font-size="28" fill="#6B4F3A">Artisan Cream Pies & Puffs</text>
      <rect x="0" y="110" width="380" height="8" rx="4" fill="#E7B045" />
    </g>
  </g>
</svg>
